# xmcd
#
# Track frame offsets: 
#        150
#        17669
#        39463
#        55061
#        68746
#        85361
#        110943
#        121182
#        147628
#        171177
#        205018
#        222715
#        245320
#        266618
#
# Disc length: 3770 seconds
#
# Revision: 0
# Processed by: cddbd v1.5.2PL0 Copyright (c) Steve Scherf et al.
# Submitted via: ExactAudioCopy v1.0b3
#
DISCID=d20eb80e
DTITLE=Różni Wykonawcy - Tadeusz Nalepa ....W hołdzie dla MIstrza!
DYEAR=2014
DGENRE=Blues
TTITLE0=Golden Virginia Playboys - Kiedy byłem małym chłopcem
TTITLE1=Dominik Kozicki - Na drugim brzegu tęczy
TTITLE2=Made in Poland - Powiedzmy to
TTITLE3=Los Agentos - Pomaluj moje sny
TTITLE4=The Cell - Oni zaraz przyjdą tu
TTITLE5=Gang Olsena - Rzeka dzieciństwa
TTITLE6=Rage - Ten o Tobie film
TTITLE7=Jackknife - Do kogo idziesz
TTITLE8=Outsider Blues - Czarno-czarny film 
TTITLE9=Immunitet - Bylem zły jak pies
TTITLE10=Portal Blues - Na wysoką wchodzę górę
TTITLE11=Chopin Died - Noc jak owoc
TTITLE12=Grzegorz Kapołka Trio - Kiedy byłem małym chłopcem
TTITLE13=Piotr Nowa Band - Pamieć
EXTD=
EXTT0=
EXTT1=
EXTT2=
EXTT3=
EXTT4=
EXTT5=
EXTT6=
EXTT7=
EXTT8=
EXTT9=
EXTT10=
EXTT11=
EXTT12=
EXTT13=
PLAYORDER=
